<svg width="308" height="63" viewBox="0 0 308 63" fill="none" xmlns="http://www.w3.org/2000/svg">
<g clip-path="url(#clip0_72_10)">
<path fill-rule="evenodd" clip-rule="evenodd" d="M0 0H303.03V63.008H0V0Z" fill="white" fill-opacity="0.01"/>
<path d="M30.6671 58.5068C46.9942 58.5068 60.2299 46.4172 60.2299 31.504C60.2299 16.5907 46.9942 4.5011 30.6671 4.5011C14.3401 4.5011 1.10437 16.5907 1.10437 31.504C1.10437 46.4172 14.3401 58.5068 30.6671 58.5068Z" fill="#EE2737"/>
<path d="M29.1476 19.4892C29.1116 19.2295 29.0188 18.979 28.8747 18.7524C28.7306 18.5259 28.5381 18.3278 28.3085 18.17C28.079 18.0122 27.817 17.8978 27.5381 17.8335C27.2592 17.7693 26.9689 17.7564 26.6844 17.7958C26.11 17.9088 25.6064 18.2205 25.28 18.6651C24.9536 19.1097 24.8301 19.6524 24.9355 20.1783C25.3445 22.2882 25.543 24.4273 25.5286 26.5697C25.5292 26.7429 25.4922 26.9146 25.4199 27.0748C25.3475 27.2351 25.2412 27.3808 25.1069 27.5037C24.9726 27.6265 24.8131 27.7241 24.6374 27.7909C24.4616 27.8577 24.2732 27.8923 24.0827 27.8928C23.8923 27.8934 23.7036 27.8598 23.5274 27.7939C23.3512 27.7281 23.1911 27.6314 23.056 27.5092C22.9209 27.3871 22.8136 27.242 22.7402 27.0821C22.6668 26.9222 22.6287 26.7508 22.6282 26.5776L22.6152 18.6858C22.6387 18.1954 22.4748 17.7128 22.1512 17.3201C21.8275 16.9273 21.3643 16.6487 20.8403 16.5317C20.5231 16.4886 20.1994 16.5097 19.8923 16.5935C19.5851 16.6773 19.3021 16.8219 19.0635 17.0168C18.8249 17.2116 18.6365 17.4521 18.5119 17.7208C18.3872 17.9896 18.3294 18.2801 18.3425 18.5716L18.3555 26.5776C18.3625 26.9408 18.212 27.292 17.9365 27.5551C17.6611 27.8182 17.2828 27.9721 16.8836 27.9834C16.6852 27.9789 16.4897 27.9384 16.3087 27.8644C16.1277 27.7903 15.9647 27.6842 15.8293 27.5522C15.6939 27.4203 15.5887 27.265 15.52 27.0956C15.4513 26.9263 15.4204 26.7461 15.429 26.5657C15.4179 24.4248 15.6164 22.2872 16.0221 20.1783C16.1288 19.6518 16.0058 19.1081 15.6794 18.6626C15.3529 18.2172 14.8485 17.9048 14.2732 17.7919C13.9881 17.7479 13.6962 17.7574 13.4153 17.8199C13.1344 17.8823 12.8705 17.9963 12.6398 18.1549C12.4091 18.3135 12.2165 18.5133 12.0738 18.7421C11.9311 18.9708 11.8413 19.2237 11.81 19.4852C11.2787 22.5332 11.057 25.6191 11.1477 28.7041C11.1866 31.7757 12.9009 34.6268 15.7148 36.3044C16.9745 37.0133 17.7754 38.238 17.8576 39.5887L18.0914 44.3064C18.113 45.5036 19.1606 46.4723 20.4723 46.5078C21.1038 46.4906 21.7037 46.2526 22.1471 45.8433C22.5906 45.4341 22.8435 44.885 22.8533 44.3104L23.0827 39.7541C23.1736 38.4073 24.0005 37.1865 25.2819 36.5092C26.6196 35.7465 27.7301 34.6957 28.5154 33.4498C29.3006 32.2039 29.7363 30.8012 29.784 29.3657C29.9312 26.0617 29.7191 22.7538 29.1476 19.4892ZM41.758 16.5042C36.126 16.5042 33.3078 24.2817 33.3078 29.4208C33.3468 32.075 34.8057 34.5402 37.2169 36.0169C38.3338 36.6864 39.0351 37.8009 39.1217 39.0177L39.3857 44.3104C39.3857 44.8827 39.6357 45.4316 40.0806 45.8363C40.5255 46.241 41.1289 46.4684 41.758 46.4684C42.3872 46.4684 42.9906 46.241 43.4355 45.8363C43.8804 45.4316 44.1303 44.8827 44.1303 44.3104L44.3987 39.0177C44.4388 38.4174 44.6317 37.8339 44.9623 37.3131C45.2929 36.7923 45.752 36.3486 46.3035 36.0169C47.4913 35.2867 48.4669 34.3056 49.1469 33.1576C49.8269 32.0096 50.1911 30.7287 50.2082 29.4247C50.2082 24.2817 47.3944 16.5042 41.758 16.5042Z" fill="white"/>
<path d="M82.3376 45.3264C83.5683 46.933 85.2281 48.2284 87.1607 49.0909C89.0933 49.9534 91.2352 50.3546 93.3852 50.2568C98.5367 50.2568 102.32 47.256 102.32 43.1684V41.0182H102.195C100.802 42.2619 99.1397 43.2271 97.3132 43.8517C95.4867 44.4763 93.5368 44.7465 91.5887 44.6451C88.5286 44.7244 85.5007 44.0584 82.8186 42.7159C80.1364 41.3734 77.8974 39.4032 76.3333 37.0093C74.7633 34.612 73.9212 31.8784 73.8931 29.088C73.8649 26.2977 74.6517 23.5505 76.1731 21.1274C77.6893 18.709 79.8879 16.7029 82.5416 15.3162C85.1954 13.9295 88.2081 13.2126 91.2683 13.2396C93.2556 13.124 95.248 13.376 97.1252 13.9804C99.0024 14.5849 100.726 15.5291 102.19 16.7562H102.32V13.8066H111.13V43.0581C111.13 51.5642 103.744 57.4594 93.3809 57.4594C90.0306 57.6247 86.685 57.0632 83.6202 55.8211C80.5553 54.5791 77.8588 52.6921 75.7532 50.3158L82.3333 45.3264H82.3376ZM101.948 27.1328C101.948 23.7265 97.7315 20.6076 93.0129 20.6076C87.0519 20.6076 83.0822 23.8997 83.0822 28.8301C82.909 31.1653 83.8657 33.4572 85.7099 35.0836C86.6181 35.8874 87.7089 36.5004 88.9056 36.8793C90.1023 37.2583 91.3757 37.3941 92.6363 37.2771C97.7921 37.2771 101.952 34.3275 101.952 30.6416V27.1289L101.948 27.1328ZM134.225 12.956C144.961 12.956 152.783 19.9302 152.783 28.8301C152.783 37.73 144.965 44.7002 134.225 44.7002C131.042 44.8898 127.863 44.2796 125.036 42.9364C122.209 41.5932 119.842 39.5686 118.195 37.0841C116.541 34.5943 115.668 31.7408 115.668 28.8321C115.668 25.9233 116.541 23.0698 118.195 20.58C119.841 18.0941 122.207 16.0679 125.035 14.7233C127.862 13.3786 131.041 12.7672 134.225 12.956ZM134.225 20.328C131.755 20.3477 129.394 21.2581 127.66 22.8594C125.927 24.4607 124.962 26.6221 124.978 28.8695C124.984 31.1168 125.969 33.2703 127.718 34.8575C129.467 36.4448 131.837 37.3362 134.307 37.3362C136.778 37.3268 139.145 36.4259 140.886 34.8311C142.628 33.2364 143.603 31.0781 143.597 28.8301C143.655 27.6952 143.451 26.5618 143 25.5026C142.548 24.4433 141.858 23.4816 140.974 22.6789C140.092 21.8786 139.035 21.2558 137.872 20.8508C136.708 20.4458 135.465 20.2677 134.221 20.328H134.225ZM161.662 20.9502H153.779V13.8066H161.658V10.7468C161.658 5.47382 165.692 2.24072 172.459 2.24072H181.086V9.44332H173.576C171.775 9.44332 170.848 10.2349 170.848 11.7667V13.8066H183.134V20.9502H170.853V43.8536H161.667L161.662 20.9502ZM202.004 12.956C212.74 12.956 220.563 19.9302 220.563 28.8301C220.563 37.73 212.74 44.7002 202.004 44.7002C198.821 44.8905 195.641 44.2807 192.813 42.9374C189.985 41.5942 187.617 39.5692 185.97 37.0841C184.316 34.5937 183.442 31.7396 183.442 28.8301C183.442 25.9206 184.316 23.0665 185.97 20.5761C187.617 18.0902 189.984 16.0645 192.812 14.7205C195.64 13.3765 198.82 12.7661 202.004 12.956ZM202.004 20.328C199.534 20.3477 197.173 21.2581 195.439 22.8594C193.706 24.4607 192.741 26.6221 192.757 28.8695C192.763 31.1168 193.749 33.2703 195.497 34.8575C197.246 36.4448 199.616 37.3362 202.086 37.3362C204.558 37.3268 206.924 36.4259 208.665 34.8311C210.407 33.2364 211.382 31.0781 211.376 28.8301C211.434 27.6952 211.23 26.5618 210.779 25.5026C210.327 24.4433 209.637 23.4816 208.753 22.6789C207.871 21.8786 206.814 21.2558 205.651 20.8508C204.488 20.4458 203.248 20.2677 202.004 20.328ZM242.779 12.956C253.515 12.956 261.337 19.9302 261.337 28.8301C261.337 37.73 253.519 44.7002 242.779 44.7002C239.596 44.8898 236.417 44.2796 233.59 42.9364C230.763 41.5932 228.396 39.5686 226.749 37.0841C225.095 34.5943 224.222 31.7408 224.222 28.8321C224.222 25.9233 225.095 23.0698 226.749 20.58C228.395 18.0941 230.761 16.0679 233.589 14.7233C236.416 13.3786 239.595 12.7672 242.779 12.956ZM242.779 20.328C240.309 20.3477 237.948 21.2581 236.214 22.8594C234.481 24.4607 233.516 26.6221 233.532 28.8695C233.538 31.1168 234.523 33.2703 236.272 34.8575C238.021 36.4448 240.391 37.3362 242.861 37.3362C245.332 37.3268 247.699 36.4259 249.44 34.8311C251.182 33.2364 252.157 31.0781 252.151 28.8301C252.209 27.6952 252.005 26.5618 251.554 25.5026C251.102 24.4433 250.412 23.4816 249.528 22.6789C248.646 21.8786 247.589 21.2558 246.426 20.8508C245.262 20.4458 244.023 20.2677 242.779 20.328ZM282.567 12.956C286.441 12.7932 290.243 13.9439 293.238 16.1852H293.368V2.47306H302.55V43.8614H294.047V40.9158H293.926C292.474 42.2265 290.734 43.2425 288.819 43.8969C286.905 44.5512 284.859 44.8291 282.818 44.7121C280.482 44.8229 278.146 44.4912 275.958 43.7381C273.77 42.985 271.778 41.8268 270.108 40.3369C268.432 38.8434 267.113 37.0512 266.234 35.0725C265.355 33.0938 264.935 30.9713 265 28.838C264.964 26.7314 265.396 24.6399 266.269 22.6885C267.142 20.7371 268.439 18.9659 270.082 17.4808C271.72 15.999 273.671 14.8347 275.818 14.0584C277.965 13.282 280.262 12.9097 282.571 12.9639L282.567 12.956ZM293.363 26.8493C293.363 23.2775 289.021 20.3319 283.991 20.3319C282.72 20.2459 281.444 20.4034 280.244 20.7941C279.044 21.1848 277.948 21.8001 277.026 22.6002C275.164 24.2187 274.125 26.4831 274.186 28.834C274.186 33.9928 278.034 37.281 283.991 37.281C289.208 37.281 293.363 34.3315 293.363 30.6455V26.8493Z" fill="white"/>
</g>
<defs>
<clipPath id="clip0_72_10">
<rect width="308" height="63" fill="white"/>
</clipPath>
</defs>
</svg>
